G04*
G04 #@! TF.GenerationSoftware,Altium Limited,Altium Designer,25.2.1 (25)*
G04*
G04 Layer_Physical_Order=2*
G04 Layer_Color=16711680*
%FSLAX44Y44*%
%MOMM*%
G71*
G04*
G04 #@! TF.SameCoordinates,08FEDEBF-EFD6-4BB9-9F50-9E33F9D93CBE*
G04*
G04*
G04 #@! TF.FilePolarity,Positive*
G04*
G01*
G75*
%ADD13C,0.2540*%
%ADD51C,0.5000*%
%ADD52C,0.2000*%
%ADD55C,1.8000*%
%ADD56C,0.7000*%
%ADD57C,0.6000*%
G36*
X590485Y1403D02*
X1657D01*
Y9495D01*
X2927Y9579D01*
X3047Y8667D01*
X3777Y6904D01*
X4940Y5389D01*
X6454Y4227D01*
X8218Y3496D01*
X10110Y3247D01*
X12003Y3496D01*
X13766Y4227D01*
X15281Y5389D01*
X16443Y6904D01*
X17174Y8667D01*
X17423Y10560D01*
X17174Y12452D01*
X16443Y14216D01*
X15281Y15731D01*
X13766Y16893D01*
X12003Y17623D01*
X10110Y17872D01*
X8218Y17623D01*
X6454Y16893D01*
X4940Y15731D01*
X3777Y14216D01*
X3047Y12452D01*
X2927Y11541D01*
X1657Y11624D01*
Y297047D01*
X590485D01*
Y1403D01*
D02*
G37*
%LPC*%
G36*
X581780Y295033D02*
X579887Y294783D01*
X578124Y294053D01*
X576609Y292891D01*
X575447Y291376D01*
X574716Y289613D01*
X574467Y287720D01*
X574716Y285827D01*
X575447Y284064D01*
X576609Y282549D01*
X578124Y281387D01*
X579887Y280657D01*
X581780Y280408D01*
X583672Y280657D01*
X585436Y281387D01*
X586951Y282549D01*
X588113Y284064D01*
X588843Y285827D01*
X589092Y287720D01*
X588843Y289613D01*
X588113Y291376D01*
X586951Y292891D01*
X585436Y294053D01*
X583672Y294783D01*
X581780Y295033D01*
D02*
G37*
G36*
X11390Y294993D02*
X9497Y294743D01*
X7734Y294013D01*
X6219Y292851D01*
X5057Y291336D01*
X4326Y289573D01*
X4077Y287680D01*
X4326Y285787D01*
X5057Y284024D01*
X6219Y282509D01*
X7734Y281347D01*
X9497Y280617D01*
X11390Y280367D01*
X13283Y280617D01*
X15046Y281347D01*
X16561Y282509D01*
X17723Y284024D01*
X18453Y285787D01*
X18702Y287680D01*
X18453Y289573D01*
X17723Y291336D01*
X16561Y292851D01*
X15046Y294013D01*
X13283Y294743D01*
X11390Y294993D01*
D02*
G37*
G36*
X265930Y291728D02*
X264369Y291418D01*
X263046Y290534D01*
X262162Y289211D01*
X261852Y287650D01*
X262162Y286089D01*
X263046Y284766D01*
X263891Y284202D01*
Y278134D01*
X259932Y274176D01*
X258759Y274662D01*
Y281292D01*
X259604Y281856D01*
X260488Y283179D01*
X260798Y284740D01*
X260488Y286301D01*
X259604Y287624D01*
X258281Y288508D01*
X256720Y288818D01*
X255159Y288508D01*
X253836Y287624D01*
X252952Y286301D01*
X252642Y284740D01*
X252952Y283179D01*
X253836Y281856D01*
X254681Y281292D01*
Y234826D01*
X253411Y234701D01*
X253338Y235067D01*
X252896Y235728D01*
X252896Y235728D01*
X238697Y249927D01*
X238958Y251240D01*
X238648Y252801D01*
X237764Y254124D01*
X236441Y255008D01*
X234880Y255318D01*
X233319Y255008D01*
X231996Y254124D01*
X231112Y252801D01*
X230802Y251240D01*
X231112Y249679D01*
X231996Y248356D01*
X233319Y247472D01*
X234880Y247162D01*
X235559Y247297D01*
X249415Y233441D01*
Y123356D01*
X248843Y123281D01*
X246411Y122273D01*
X244322Y120670D01*
X242719Y118581D01*
X241711Y116149D01*
X241368Y113538D01*
X241711Y110927D01*
X242719Y108495D01*
X244322Y106406D01*
X246411Y104803D01*
X248843Y103795D01*
X251454Y103452D01*
X254065Y103795D01*
X256497Y104803D01*
X258586Y106406D01*
X260189Y108495D01*
X261197Y110927D01*
X261540Y113538D01*
X261197Y116149D01*
X260189Y118581D01*
X258586Y120670D01*
X256497Y122273D01*
X254065Y123281D01*
X253493Y123356D01*
Y155185D01*
X254763Y155570D01*
X254938Y155308D01*
X274815Y135431D01*
Y123356D01*
X274244Y123281D01*
X271811Y122273D01*
X269722Y120670D01*
X268119Y118581D01*
X267111Y116149D01*
X266768Y113538D01*
X267111Y110927D01*
X268119Y108495D01*
X269722Y106406D01*
X271811Y104803D01*
X274244Y103795D01*
X276854Y103452D01*
X279464Y103795D01*
X281897Y104803D01*
X283986Y106406D01*
X285589Y108495D01*
X286597Y110927D01*
X286940Y113538D01*
X286597Y116149D01*
X285589Y118581D01*
X283986Y120670D01*
X281897Y122273D01*
X279464Y123281D01*
X278893Y123356D01*
Y136276D01*
X278893Y136276D01*
X278785Y136821D01*
X279237Y137673D01*
X279574Y138091D01*
X291825D01*
X300215Y129701D01*
Y123356D01*
X299643Y123281D01*
X297211Y122273D01*
X295122Y120670D01*
X293519Y118581D01*
X292511Y116149D01*
X292168Y113538D01*
X292511Y110927D01*
X293519Y108495D01*
X295122Y106406D01*
X297211Y104803D01*
X299643Y103795D01*
X302254Y103452D01*
X304865Y103795D01*
X307297Y104803D01*
X309386Y106406D01*
X310989Y108495D01*
X311997Y110927D01*
X312340Y113538D01*
X311997Y116149D01*
X310989Y118581D01*
X309386Y120670D01*
X307297Y122273D01*
X304865Y123281D01*
X304293Y123356D01*
Y130546D01*
X304138Y131326D01*
X303696Y131988D01*
X294112Y141572D01*
X293450Y142014D01*
X292670Y142169D01*
X278095D01*
X262079Y158184D01*
Y270555D01*
X267372Y275848D01*
X267814Y276509D01*
X267969Y277290D01*
X267969Y277290D01*
Y284202D01*
X268814Y284766D01*
X269698Y286089D01*
X270008Y287650D01*
X269698Y289211D01*
X268814Y290534D01*
X267491Y291418D01*
X265930Y291728D01*
D02*
G37*
G36*
X298686Y272212D02*
X296930Y271863D01*
X295441Y270868D01*
X294447Y269380D01*
X294098Y267624D01*
X294447Y265868D01*
X295309Y264578D01*
X295124Y263735D01*
X294876Y263230D01*
X294657Y263197D01*
X294244Y263814D01*
X292756Y264809D01*
X291000Y265158D01*
X289244Y264809D01*
X287756Y263814D01*
X286761Y262326D01*
X286412Y260570D01*
X286761Y258814D01*
X287756Y257326D01*
X289244Y256331D01*
X291000Y255982D01*
X292756Y256331D01*
X293163Y256603D01*
X294306Y255840D01*
X294098Y254790D01*
X294447Y253034D01*
X294770Y252551D01*
X293854Y251635D01*
X292756Y252369D01*
X291000Y252718D01*
X289244Y252369D01*
X287756Y251374D01*
X286761Y249886D01*
X286412Y248130D01*
X286761Y246374D01*
X287756Y244886D01*
X289244Y243891D01*
X291000Y243542D01*
X292756Y243891D01*
X294244Y244886D01*
X295212Y244121D01*
X294447Y242976D01*
X294098Y241220D01*
X294391Y239744D01*
X293684Y239070D01*
X293362Y238904D01*
X292756Y239309D01*
X291000Y239658D01*
X289244Y239309D01*
X287756Y238314D01*
X286761Y236826D01*
X286412Y235070D01*
X286761Y233314D01*
X287756Y231826D01*
X289244Y230831D01*
X291000Y230482D01*
X292756Y230831D01*
X294244Y231826D01*
X295050Y233031D01*
X309330D01*
X310110Y233186D01*
X310772Y233628D01*
X320895Y243751D01*
X432486D01*
X540833Y135404D01*
X540833Y135404D01*
X541494Y134962D01*
X542275Y134806D01*
X549092D01*
X549896Y133604D01*
X551385Y132609D01*
X553140Y132260D01*
X554896Y132609D01*
X556385Y133604D01*
X557379Y135092D01*
X557729Y136848D01*
X557379Y138604D01*
X556385Y140092D01*
X554896Y141087D01*
X553140Y141436D01*
X551385Y141087D01*
X551367Y141075D01*
X550319Y141726D01*
X550335Y142818D01*
X551378Y143456D01*
X551844Y143145D01*
X553600Y142795D01*
X555356Y143145D01*
X556844Y144139D01*
X557839Y145628D01*
X558188Y147384D01*
X557839Y149139D01*
X556844Y150628D01*
X555356Y151622D01*
X553600Y151972D01*
X551844Y151622D01*
X551577Y151444D01*
X550434Y152208D01*
X550663Y153357D01*
X550540Y153976D01*
X551683Y154740D01*
X552114Y154451D01*
X553870Y154102D01*
X555626Y154451D01*
X557114Y155446D01*
X558109Y156934D01*
X558458Y158690D01*
X558109Y160446D01*
X557114Y161934D01*
X555626Y162929D01*
X553870Y163278D01*
X552114Y162929D01*
X552039Y162879D01*
X550896Y163643D01*
X551128Y164810D01*
X550779Y166566D01*
X549784Y168054D01*
X548296Y169049D01*
X546540Y169398D01*
X544784Y169049D01*
X543296Y168054D01*
X542490Y166849D01*
X536368D01*
X440985Y262232D01*
X440324Y262674D01*
X439543Y262829D01*
X319655D01*
X313418Y269066D01*
X312756Y269508D01*
X311976Y269663D01*
X302735D01*
X301930Y270868D01*
X300441Y271863D01*
X298686Y272212D01*
D02*
G37*
G36*
X509890Y159118D02*
X508134Y158769D01*
X507131Y158099D01*
X428820D01*
X427454Y157827D01*
X426297Y157053D01*
X386350Y117107D01*
X337000D01*
X336389Y118581D01*
X334786Y120670D01*
X332697Y122273D01*
X330265Y123281D01*
X327654Y123624D01*
X325043Y123281D01*
X322611Y122273D01*
X320522Y120670D01*
X318919Y118581D01*
X317911Y116149D01*
X317568Y113538D01*
X317911Y110927D01*
X318919Y108495D01*
X320522Y106406D01*
X322611Y104803D01*
X325043Y103795D01*
X327654Y103452D01*
X330265Y103795D01*
X332697Y104803D01*
X334786Y106406D01*
X336389Y108495D01*
X337000Y109970D01*
X387828D01*
X389194Y110241D01*
X390351Y111015D01*
X430298Y150962D01*
X507131D01*
X508134Y150291D01*
X509890Y149942D01*
X511646Y150291D01*
X513134Y151286D01*
X514129Y152774D01*
X514478Y154530D01*
X514129Y156286D01*
X513134Y157774D01*
X511646Y158769D01*
X509890Y159118D01*
D02*
G37*
G36*
X563840Y160598D02*
X562084Y160249D01*
X560596Y159254D01*
X559601Y157766D01*
X559252Y156010D01*
X559601Y154254D01*
X560596Y152766D01*
X561525Y152144D01*
Y134789D01*
X540451Y113714D01*
X453529D01*
X452754Y114874D01*
X451266Y115869D01*
X449510Y116218D01*
X447754Y115869D01*
X446266Y114874D01*
X445271Y113386D01*
X444922Y111630D01*
X445271Y109874D01*
X445922Y108899D01*
X445285Y107629D01*
X430725D01*
X429839Y107453D01*
X429089Y106952D01*
X408502Y86365D01*
X406436D01*
X405815Y87295D01*
X404326Y88289D01*
X402570Y88638D01*
X400814Y88289D01*
X399326Y87295D01*
X398331Y85806D01*
X397982Y84050D01*
X398331Y82294D01*
X399326Y80806D01*
X400814Y79811D01*
X402570Y79462D01*
X404326Y79811D01*
X405815Y80806D01*
X406436Y81736D01*
X409460D01*
X410346Y81912D01*
X411097Y82414D01*
X431684Y103001D01*
X550285D01*
X551171Y103177D01*
X551922Y103679D01*
X572257Y124013D01*
X572758Y124764D01*
X572935Y125650D01*
Y139544D01*
X573865Y140166D01*
X574859Y141654D01*
X575208Y143410D01*
X574859Y145166D01*
X573865Y146654D01*
X572376Y147649D01*
X570620Y147998D01*
X568864Y147649D01*
X567424Y146687D01*
X567138Y146743D01*
X566154Y147112D01*
Y152144D01*
X567084Y152766D01*
X568079Y154254D01*
X568428Y156010D01*
X568079Y157766D01*
X567084Y159254D01*
X565596Y160249D01*
X563840Y160598D01*
D02*
G37*
G36*
X226054Y123624D02*
X223444Y123281D01*
X221011Y122273D01*
X218922Y120670D01*
X217319Y118581D01*
X216311Y116149D01*
X215968Y113538D01*
X216311Y110927D01*
X217319Y108495D01*
X218922Y106406D01*
X221011Y104803D01*
X223444Y103795D01*
X226054Y103452D01*
X228664Y103795D01*
X231097Y104803D01*
X233186Y106406D01*
X234789Y108495D01*
X235797Y110927D01*
X236140Y113538D01*
X235797Y116149D01*
X234789Y118581D01*
X233186Y120670D01*
X231097Y122273D01*
X228664Y123281D01*
X226054Y123624D01*
D02*
G37*
G36*
X581450Y17473D02*
X579558Y17223D01*
X577794Y16493D01*
X576279Y15331D01*
X575117Y13816D01*
X574387Y12053D01*
X574138Y10160D01*
X574387Y8267D01*
X575117Y6504D01*
X576279Y4989D01*
X577794Y3827D01*
X579558Y3097D01*
X581450Y2848D01*
X583343Y3097D01*
X585107Y3827D01*
X586621Y4989D01*
X587783Y6504D01*
X588514Y8267D01*
X588763Y10160D01*
X588514Y12053D01*
X587783Y13816D01*
X586621Y15331D01*
X585107Y16493D01*
X583343Y17223D01*
X581450Y17473D01*
D02*
G37*
%LPD*%
D13*
X449510Y111400D02*
X541410D01*
X449510D02*
X541410D01*
X449510D02*
X541410D01*
X563840Y133830D01*
Y156010D01*
X570620Y125650D02*
Y143410D01*
X550285Y105315D02*
X570620Y125650D01*
X430725Y105315D02*
X550285D01*
X402570Y84050D02*
X409460D01*
X430725Y105315D01*
X449510Y111400D02*
Y111630D01*
D51*
X428820Y154530D02*
X509890D01*
X387828Y113538D02*
X428820Y154530D01*
X327654Y113538D02*
X387828D01*
D52*
X318810Y260790D02*
X439543D01*
X311976Y267624D02*
X318810Y260790D01*
X298686Y267624D02*
X311976D01*
X316780Y257790D02*
X438301D01*
X314000Y260570D02*
X316780Y257790D01*
X291000Y260570D02*
X314000D01*
X439543Y260790D02*
X535523Y164810D01*
X438301Y257790D02*
X537234Y158857D01*
X433331Y245790D02*
X542275Y136846D01*
X320050Y245790D02*
X433331D01*
X309330Y235070D02*
X320050Y245790D01*
X434573Y248790D02*
X541017Y142346D01*
X317740Y248790D02*
X434573D01*
X310170Y241220D02*
X317740Y248790D01*
X435816Y251790D02*
X539760Y147846D01*
X316497Y251790D02*
X435816D01*
X312838Y248130D02*
X316497Y251790D01*
X437058Y254790D02*
X539208Y152640D01*
X298686Y254790D02*
X437058D01*
X291000Y248130D02*
X312838D01*
X553140Y136848D02*
X553600Y137307D01*
X553138Y136846D02*
X553140Y136848D01*
X291000Y235070D02*
X309330D01*
X298686Y241220D02*
X310170D01*
X535523Y164810D02*
X546540D01*
X537234Y158857D02*
X553704D01*
X553870Y158690D01*
X553136Y147848D02*
X553600Y147384D01*
X541017Y142346D02*
X545622D01*
X545625Y142348D01*
X543346Y147848D02*
X553136D01*
X539760Y147846D02*
X543344D01*
X543346Y147848D01*
X542275Y136846D02*
X553138D01*
X539208Y152640D02*
X542544D01*
X260040Y271400D02*
X265930Y277290D01*
Y287650D01*
X256720Y157090D02*
Y284740D01*
X256380Y156750D02*
X256720Y157090D01*
X256380Y156750D02*
X276854Y136276D01*
X292670Y140130D02*
X302254Y130546D01*
X277250Y140130D02*
X292670D01*
X260040Y157340D02*
X277250Y140130D01*
X260040Y157340D02*
Y271400D01*
X276854Y113538D02*
Y136276D01*
X234880Y250860D02*
Y251240D01*
Y250860D02*
X251454Y234286D01*
X302254Y113538D02*
Y130546D01*
X251454Y113538D02*
Y234286D01*
D55*
X226054Y113538D02*
D03*
X251454D02*
D03*
X327654D02*
D03*
X302254D02*
D03*
X276854D02*
D03*
X200654D02*
D03*
D56*
X553870Y158690D02*
D03*
X546540Y164810D02*
D03*
X546075Y153357D02*
D03*
X545625Y142348D02*
D03*
X509890Y154530D02*
D03*
X563840Y156010D02*
D03*
X570620Y143410D02*
D03*
X291000Y235070D02*
D03*
X298686Y241220D02*
D03*
X291000Y248130D02*
D03*
X298686Y254790D02*
D03*
Y267624D02*
D03*
X291000Y260570D02*
D03*
X553600Y147384D02*
D03*
X449510Y111630D02*
D03*
X553140Y136848D02*
D03*
X402570Y84050D02*
D03*
X165124Y186998D02*
D03*
X45124Y26998D02*
D03*
X125124Y266998D02*
D03*
X43624Y96488D02*
D03*
X325124Y266998D02*
D03*
X165124Y26998D02*
D03*
X429654Y198158D02*
D03*
X325124Y26998D02*
D03*
X192754Y71588D02*
D03*
X145124Y146998D02*
D03*
X345124Y226998D02*
D03*
X145124D02*
D03*
X212144Y92078D02*
D03*
X145124Y66998D02*
D03*
X245124Y186998D02*
D03*
X204224Y213418D02*
D03*
X45124Y266998D02*
D03*
X285124Y26998D02*
D03*
X156744Y265558D02*
D03*
X405204Y158948D02*
D03*
X358924Y16388D02*
D03*
X425124Y226998D02*
D03*
X329324Y181868D02*
D03*
X537624Y272008D02*
D03*
X304964Y71268D02*
D03*
X65124Y226998D02*
D03*
X280464Y93048D02*
D03*
X516234Y264878D02*
D03*
X275684Y214248D02*
D03*
X65124Y66998D02*
D03*
X230624Y135838D02*
D03*
X205124Y26998D02*
D03*
X91334Y97198D02*
D03*
X360624Y130008D02*
D03*
X45124Y186998D02*
D03*
X385124Y226998D02*
D03*
X125124Y26998D02*
D03*
X205124Y186998D02*
D03*
X394714Y14678D02*
D03*
X316584Y132738D02*
D03*
X283924Y157578D02*
D03*
X445124Y266998D02*
D03*
X234854Y74278D02*
D03*
X385124Y146998D02*
D03*
X565124Y26998D02*
D03*
X245124D02*
D03*
X483134Y280158D02*
D03*
X361764Y82848D02*
D03*
X365124Y266998D02*
D03*
X525124Y26998D02*
D03*
X405124Y186998D02*
D03*
X243504Y92078D02*
D03*
X320664Y209878D02*
D03*
X405124Y266998D02*
D03*
X147024Y100508D02*
D03*
X305124Y226998D02*
D03*
X105124Y66998D02*
D03*
X203394Y134868D02*
D03*
X95274Y264908D02*
D03*
X585124Y146998D02*
D03*
X365124Y186998D02*
D03*
X312014Y158438D02*
D03*
X268404Y73008D02*
D03*
X553214Y46498D02*
D03*
X125124Y186998D02*
D03*
X345124Y146998D02*
D03*
D57*
X265930Y287650D02*
D03*
X256720Y284740D02*
D03*
X234880Y251240D02*
D03*
M02*
