G04*
G04 #@! TF.GenerationSoftware,Altium Limited,Altium Designer,25.2.1 (25)*
G04*
G04 Layer_Color=65535*
%FSLAX44Y44*%
%MOMM*%
G71*
G04*
G04 #@! TF.SameCoordinates,08FEDEBF-EFD6-4BB9-9F50-9E33F9D93CBE*
G04*
G04*
G04 #@! TF.FilePolarity,Positive*
G04*
G01*
G75*
%ADD10C,0.1270*%
%ADD11C,0.1250*%
%ADD12C,0.1000*%
%ADD13C,0.2540*%
D10*
X342654Y81038D02*
Y146038D01*
X185654D02*
X342654D01*
X185654Y81038D02*
Y146038D01*
Y81038D02*
X342654D01*
X179324Y32004D02*
Y254254D01*
X63754Y18034D02*
X132334D01*
X20574Y254254D02*
X179324D01*
Y18034D02*
Y32004D01*
X132334Y18034D02*
X179324D01*
X20574D02*
X63754D01*
X197660Y242570D02*
X203660D01*
X217384Y229144D02*
Y294144D01*
Y229144D02*
X282384D01*
Y294144D01*
X217384D02*
X282384D01*
X494980Y84370D02*
X514980D01*
Y78370D02*
Y84370D01*
X494980Y78370D02*
X514980D01*
X494980D02*
Y84370D01*
X494880Y46360D02*
X514880D01*
X567206Y247890D02*
X578456D01*
X567206Y62390D02*
X578456D01*
Y247890D01*
X450680Y80650D02*
Y107550D01*
X467570Y80650D02*
Y107550D01*
X450680Y85210D02*
X467570D01*
X394860Y48580D02*
X421760D01*
X394860Y65470D02*
X421760D01*
X417200Y48580D02*
Y65470D01*
X394920Y91840D02*
X421820D01*
X394920Y74950D02*
X421820D01*
X399480D02*
Y91840D01*
X430910Y108320D02*
Y114320D01*
X490594Y245412D02*
Y251412D01*
Y229664D02*
Y235664D01*
Y213916D02*
Y219916D01*
Y198168D02*
Y204168D01*
Y182420D02*
Y188420D01*
Y166672D02*
Y172672D01*
Y150924D02*
Y156924D01*
X490474Y135176D02*
Y141176D01*
Y119428D02*
Y125428D01*
X187930Y32910D02*
Y40528D01*
X191739D01*
X193008Y39258D01*
Y36719D01*
X191739Y35449D01*
X187930D01*
X190469D02*
X193008Y32910D01*
X195548Y39258D02*
X196817Y40528D01*
X199356D01*
X200626Y39258D01*
Y34180D01*
X199356Y32910D01*
X196817D01*
X195548Y34180D01*
Y39258D01*
X191948Y158717D02*
X189409D01*
X190679D01*
Y152370D01*
X189409Y151100D01*
X188140D01*
X186870Y152370D01*
X194487Y157448D02*
X195757Y158717D01*
X198296D01*
X199566Y157448D01*
Y156178D01*
X198296Y154909D01*
X197027D01*
X198296D01*
X199566Y153639D01*
Y152370D01*
X198296Y151100D01*
X195757D01*
X194487Y152370D01*
X80128Y268207D02*
X77589D01*
X78859D01*
Y261860D01*
X77589Y260590D01*
X76320D01*
X75050Y261860D01*
X82668Y260590D02*
X85207D01*
X83937D01*
Y268207D01*
X82668Y266938D01*
X285418Y191978D02*
Y199596D01*
X289227D01*
X290496Y198326D01*
Y195787D01*
X289227Y194517D01*
X285418D01*
X287957D02*
X290496Y191978D01*
X293036Y198326D02*
X294305Y199596D01*
X296844D01*
X298114Y198326D01*
Y197056D01*
X296844Y195787D01*
X295575D01*
X296844D01*
X298114Y194517D01*
Y193248D01*
X296844Y191978D01*
X294305D01*
X293036Y193248D01*
X195388Y268928D02*
X194119Y270198D01*
X191580D01*
X190310Y268928D01*
Y263850D01*
X191580Y262580D01*
X194119D01*
X195388Y263850D01*
X197927Y262580D02*
X200467D01*
X199197D01*
Y270198D01*
X197927Y268928D01*
X204275D02*
X205545Y270198D01*
X208084D01*
X209354Y268928D01*
Y267658D01*
X208084Y266389D01*
X206815D01*
X208084D01*
X209354Y265119D01*
Y263850D01*
X208084Y262580D01*
X205545D01*
X204275Y263850D01*
X199136Y287272D02*
Y280924D01*
X200406Y279654D01*
X202945D01*
X204214Y280924D01*
Y287272D01*
X206754Y279654D02*
X209293D01*
X208023D01*
Y287272D01*
X206754Y286002D01*
X240258Y168108D02*
X238989Y169377D01*
X236450D01*
X235180Y168108D01*
Y166838D01*
X236450Y165569D01*
X238989D01*
X240258Y164299D01*
Y163030D01*
X238989Y161760D01*
X236450D01*
X235180Y163030D01*
X242798Y169377D02*
Y161760D01*
X245337Y164299D01*
X247876Y161760D01*
Y169377D01*
X250415Y161760D02*
X252954D01*
X251685D01*
Y169377D01*
X250415Y168108D01*
X517590Y102810D02*
X509972D01*
Y106619D01*
X511242Y107888D01*
X513781D01*
X515051Y106619D01*
Y102810D01*
Y105349D02*
X517590Y107888D01*
Y115506D02*
Y110428D01*
X512512Y115506D01*
X511242D01*
X509972Y114236D01*
Y111697D01*
X511242Y110428D01*
X476990Y54650D02*
Y62267D01*
X480799D01*
X482068Y60998D01*
Y58459D01*
X480799Y57189D01*
X476990D01*
X479529D02*
X482068Y54650D01*
X484608D02*
X487147D01*
X485877D01*
Y62267D01*
X484608Y60998D01*
X522808Y67560D02*
Y72638D01*
X521539Y73907D01*
X519000D01*
X517730Y72638D01*
Y67560D01*
X519000Y66290D01*
X521539D01*
X520269Y68829D02*
X522808Y66290D01*
X521539D02*
X522808Y67560D01*
X525348Y66290D02*
X527887D01*
X526617D01*
Y73907D01*
X525348Y72638D01*
X521190Y45198D02*
Y37580D01*
X526268D01*
X528807D02*
X531347D01*
X530077D01*
Y45198D01*
X528807Y43928D01*
X548638Y263142D02*
X546099D01*
X547369D01*
Y256794D01*
X546099Y255524D01*
X544830D01*
X543560Y256794D01*
X556256Y255524D02*
X551177D01*
X556256Y260602D01*
Y261872D01*
X554986Y263142D01*
X552447D01*
X551177Y261872D01*
X438833Y82610D02*
X446450D01*
Y86419D01*
X445180Y87688D01*
X440102D01*
X438833Y86419D01*
Y82610D01*
X440102Y90227D02*
X438833Y91497D01*
Y94036D01*
X440102Y95306D01*
X441372D01*
X442641Y94036D01*
Y92767D01*
Y94036D01*
X443911Y95306D01*
X445180D01*
X446450Y94036D01*
Y91497D01*
X445180Y90227D01*
X400820Y41427D02*
Y33810D01*
X404629D01*
X405898Y35080D01*
Y40158D01*
X404629Y41427D01*
X400820D01*
X413516Y33810D02*
X408438D01*
X413516Y38888D01*
Y40158D01*
X412246Y41427D01*
X409707D01*
X408438Y40158D01*
X404360Y105868D02*
Y98250D01*
X408169D01*
X409438Y99520D01*
Y104598D01*
X408169Y105868D01*
X404360D01*
X411978Y98250D02*
X414517D01*
X413247D01*
Y105868D01*
X411978Y104598D01*
X451938Y25468D02*
X450669Y26737D01*
X448130D01*
X446860Y25468D01*
Y20390D01*
X448130Y19120D01*
X450669D01*
X451938Y20390D01*
X454478Y19120D02*
X457017D01*
X455747D01*
Y26737D01*
X454478Y25468D01*
X465904Y19120D02*
X460826D01*
X465904Y24198D01*
Y25468D01*
X464634Y26737D01*
X462095D01*
X460826Y25468D01*
X425448Y127858D02*
X424179Y129128D01*
X421640D01*
X420370Y127858D01*
Y122780D01*
X421640Y121510D01*
X424179D01*
X425448Y122780D01*
X427988Y121510D02*
X430527D01*
X429257D01*
Y129128D01*
X427988Y127858D01*
X434336Y121510D02*
X436875D01*
X435605D01*
Y129128D01*
X434336Y127858D01*
X448238Y44018D02*
X446969Y45287D01*
X444430D01*
X443160Y44018D01*
Y38940D01*
X444430Y37670D01*
X446969D01*
X448238Y38940D01*
X450778Y37670D02*
X453317D01*
X452047D01*
Y45287D01*
X450778Y44018D01*
X457126D02*
X458395Y45287D01*
X460934D01*
X462204Y44018D01*
Y38940D01*
X460934Y37670D01*
X458395D01*
X457126Y38940D01*
Y44018D01*
X490078Y266238D02*
X488809Y267507D01*
X486270D01*
X485000Y266238D01*
Y261160D01*
X486270Y259890D01*
X488809D01*
X490078Y261160D01*
X492617D02*
X493887Y259890D01*
X496426D01*
X497696Y261160D01*
Y266238D01*
X496426Y267507D01*
X493887D01*
X492617Y266238D01*
Y264968D01*
X493887Y263699D01*
X497696D01*
X464968Y250568D02*
X463699Y251838D01*
X461160D01*
X459890Y250568D01*
Y245490D01*
X461160Y244220D01*
X463699D01*
X464968Y245490D01*
X467508Y250568D02*
X468777Y251838D01*
X471316D01*
X472586Y250568D01*
Y249298D01*
X471316Y248029D01*
X472586Y246759D01*
Y245490D01*
X471316Y244220D01*
X468777D01*
X467508Y245490D01*
Y246759D01*
X468777Y248029D01*
X467508Y249298D01*
Y250568D01*
X468777Y248029D02*
X471316D01*
X465258Y220118D02*
X463989Y221388D01*
X461450D01*
X460180Y220118D01*
Y215040D01*
X461450Y213770D01*
X463989D01*
X465258Y215040D01*
X467798Y221388D02*
X472876D01*
Y220118D01*
X467798Y215040D01*
Y213770D01*
X465188Y205808D02*
X463919Y207078D01*
X461380D01*
X460110Y205808D01*
Y200730D01*
X461380Y199460D01*
X463919D01*
X465188Y200730D01*
X472806Y207078D02*
X470267Y205808D01*
X467728Y203269D01*
Y200730D01*
X468997Y199460D01*
X471536D01*
X472806Y200730D01*
Y201999D01*
X471536Y203269D01*
X467728D01*
X464608Y189018D02*
X463339Y190287D01*
X460800D01*
X459530Y189018D01*
Y183940D01*
X460800Y182670D01*
X463339D01*
X464608Y183940D01*
X472226Y190287D02*
X467147D01*
Y186479D01*
X469687Y187748D01*
X470956D01*
X472226Y186479D01*
Y183940D01*
X470956Y182670D01*
X468417D01*
X467147Y183940D01*
X464748Y173468D02*
X463479Y174737D01*
X460940D01*
X459670Y173468D01*
Y168390D01*
X460940Y167120D01*
X463479D01*
X464748Y168390D01*
X471096Y167120D02*
Y174737D01*
X467287Y170929D01*
X472366D01*
X463878Y156828D02*
X462609Y158097D01*
X460070D01*
X458800Y156828D01*
Y151750D01*
X460070Y150480D01*
X462609D01*
X463878Y151750D01*
X466418Y156828D02*
X467687Y158097D01*
X470226D01*
X471496Y156828D01*
Y155558D01*
X470226Y154289D01*
X468957D01*
X470226D01*
X471496Y153019D01*
Y151750D01*
X470226Y150480D01*
X467687D01*
X466418Y151750D01*
X463298Y141788D02*
X462029Y143057D01*
X459490D01*
X458220Y141788D01*
Y136710D01*
X459490Y135440D01*
X462029D01*
X463298Y136710D01*
X470916Y135440D02*
X465838D01*
X470916Y140518D01*
Y141788D01*
X469646Y143057D01*
X467107D01*
X465838Y141788D01*
X463368Y130088D02*
X462099Y131357D01*
X459560D01*
X458290Y130088D01*
Y125010D01*
X459560Y123740D01*
X462099D01*
X463368Y125010D01*
X465908Y123740D02*
X468447D01*
X467177D01*
Y131357D01*
X465908Y130088D01*
D11*
X20574Y254254D02*
X20574Y18034D01*
D12*
X227620Y212014D02*
X264620D01*
X227620Y175014D02*
X264620D01*
X227620Y188514D02*
Y198514D01*
X264620Y188514D02*
Y198514D01*
D13*
X199177Y65005D02*
X189020D01*
Y49770D01*
X199177D01*
X189020Y57387D02*
X194098D01*
X214412Y62466D02*
X211873Y65005D01*
X206794D01*
X204255Y62466D01*
Y59927D01*
X206794Y57387D01*
X211873D01*
X214412Y54848D01*
Y52309D01*
X211873Y49770D01*
X206794D01*
X204255Y52309D01*
X219490Y65005D02*
Y49770D01*
X229647D01*
M02*
