G04*
G04 #@! TF.GenerationSoftware,Altium Limited,Altium Designer,25.2.1 (25)*
G04*
G04 Layer_Color=8388736*
%FSLAX44Y44*%
%MOMM*%
G71*
G04*
G04 #@! TF.SameCoordinates,08FEDEBF-EFD6-4BB9-9F50-9E33F9D93CBE*
G04*
G04*
G04 #@! TF.FilePolarity,Negative*
G04*
G01*
G75*
%ADD14R,4.1600X4.1600*%
%ADD15R,3.3800X3.3800*%
%ADD16R,1.1000X1.2000*%
G04:AMPARAMS|DCode=17|XSize=1.15mm|YSize=1.15mm|CornerRadius=0mm|HoleSize=0mm|Usage=FLASHONLY|Rotation=270.000|XOffset=0mm|YOffset=0mm|HoleType=Round|Shape=RoundedRectangle|*
%AMROUNDEDRECTD17*
21,1,1.1500,1.1500,0,0,270.0*
21,1,1.1500,1.1500,0,0,270.0*
1,1,0.0000,-0.5750,-0.5750*
1,1,0.0000,-0.5750,0.5750*
1,1,0.0000,0.5750,0.5750*
1,1,0.0000,0.5750,-0.5750*
%
%ADD17ROUNDEDRECTD17*%
%ADD18R,0.7000X0.7000*%
%ADD19R,0.6500X0.6500*%
%ADD20R,0.8000X0.8500*%
%ADD21R,1.2000X1.1000*%
%ADD22R,0.7500X1.0500*%
%ADD23R,2.4000X1.0500*%
%ADD24R,3.2000X2.9000*%
%ADD25R,1.4000X0.5000*%
%ADD26R,1.0000X1.3500*%
%ADD27R,1.3500X1.0000*%
%ADD28R,1.6700X1.1700*%
G04:AMPARAMS|DCode=29|XSize=1.15mm|YSize=1.15mm|CornerRadius=0mm|HoleSize=0mm|Usage=FLASHONLY|Rotation=0.000|XOffset=0mm|YOffset=0mm|HoleType=Round|Shape=RoundedRectangle|*
%AMROUNDEDRECTD29*
21,1,1.1500,1.1500,0,0,0.0*
21,1,1.1500,1.1500,0,0,0.0*
1,1,0.0000,0.5750,-0.5750*
1,1,0.0000,-0.5750,-0.5750*
1,1,0.0000,-0.5750,0.5750*
1,1,0.0000,0.5750,0.5750*
%
%ADD29ROUNDEDRECTD29*%
%ADD30R,1.1700X1.6700*%
%ADD31C,1.4500*%
%ADD32C,1.9000*%
%ADD33C,0.5000*%
D14*
X87884Y137414D02*
D03*
D15*
Y235204D02*
D03*
Y37084D02*
D03*
D16*
X284030Y180040D02*
D03*
X301030D02*
D03*
X498332Y106426D02*
D03*
X481332D02*
D03*
D17*
X200660Y235070D02*
D03*
Y250070D02*
D03*
D18*
X255084Y250124D02*
D03*
Y259124D02*
D03*
X244684D02*
D03*
Y250124D02*
D03*
D19*
X240134Y269494D02*
D03*
X246634D02*
D03*
X253134D02*
D03*
Y239744D02*
D03*
X246634D02*
D03*
X240134D02*
D03*
X230384Y275994D02*
D03*
X236884D02*
D03*
X243384D02*
D03*
X249884D02*
D03*
X256384D02*
D03*
X262884D02*
D03*
Y233244D02*
D03*
X256384D02*
D03*
X249884D02*
D03*
X243384D02*
D03*
X236884D02*
D03*
X230384D02*
D03*
X271784Y264374D02*
D03*
Y257874D02*
D03*
Y251374D02*
D03*
X278284Y274124D02*
D03*
Y267624D02*
D03*
Y261124D02*
D03*
Y254624D02*
D03*
Y248124D02*
D03*
X259634Y269494D02*
D03*
X269384Y275994D02*
D03*
X271784Y244874D02*
D03*
X278284Y290044D02*
D03*
Y283544D02*
D03*
Y241624D02*
D03*
Y235124D02*
D03*
X259634Y239744D02*
D03*
X269384Y233244D02*
D03*
X227984Y244874D02*
D03*
Y251374D02*
D03*
Y257874D02*
D03*
Y264374D02*
D03*
X221484Y235124D02*
D03*
Y241624D02*
D03*
Y248124D02*
D03*
Y254624D02*
D03*
Y261124D02*
D03*
Y267624D02*
D03*
Y274124D02*
D03*
Y283544D02*
D03*
Y290044D02*
D03*
D20*
X230620Y207264D02*
D03*
X261620D02*
D03*
X230620Y179764D02*
D03*
X261620D02*
D03*
D21*
X481610Y72790D02*
D03*
Y89790D02*
D03*
D22*
X504980Y70870D02*
D03*
X498480Y91870D02*
D03*
X511480D02*
D03*
D23*
X504880Y36110D02*
D03*
Y56610D02*
D03*
D24*
X549206Y231940D02*
D03*
Y78340D02*
D03*
D25*
X530606Y197640D02*
D03*
Y192640D02*
D03*
Y177640D02*
D03*
Y172640D02*
D03*
Y157640D02*
D03*
Y152640D02*
D03*
Y137640D02*
D03*
Y132640D02*
D03*
Y127640D02*
D03*
Y122640D02*
D03*
Y97640D02*
D03*
Y102640D02*
D03*
Y107640D02*
D03*
Y112640D02*
D03*
Y117640D02*
D03*
Y142640D02*
D03*
Y147640D02*
D03*
Y162640D02*
D03*
Y167640D02*
D03*
Y182640D02*
D03*
Y187640D02*
D03*
Y202640D02*
D03*
Y207640D02*
D03*
Y212640D02*
D03*
D26*
X459570Y76600D02*
D03*
Y111600D02*
D03*
D27*
X425810Y57470D02*
D03*
X390810D02*
D03*
X390870Y82950D02*
D03*
X425870D02*
D03*
D28*
X479450Y35910D02*
D03*
Y19310D02*
D03*
D29*
X438410Y111320D02*
D03*
X423410D02*
D03*
X498094Y248412D02*
D03*
X483094D02*
D03*
X498094Y232664D02*
D03*
X483094D02*
D03*
X498094Y216916D02*
D03*
X483094D02*
D03*
X498094Y201168D02*
D03*
X483094D02*
D03*
X498094Y185420D02*
D03*
X483094D02*
D03*
X498094Y169672D02*
D03*
X483094D02*
D03*
X498094Y153924D02*
D03*
X483094D02*
D03*
X482974Y138176D02*
D03*
X497974D02*
D03*
Y122428D02*
D03*
X482974D02*
D03*
D30*
X443060Y56820D02*
D03*
X459660D02*
D03*
D31*
X581780Y287720D02*
D03*
X581450Y10160D02*
D03*
X10110Y10560D02*
D03*
X11390Y287680D02*
D03*
D32*
X226054Y113538D02*
D03*
X251454D02*
D03*
X327654D02*
D03*
X302254D02*
D03*
X276854D02*
D03*
X200654D02*
D03*
D33*
X553870Y158690D02*
D03*
X546540Y164810D02*
D03*
X546075Y153357D02*
D03*
X545625Y142348D02*
D03*
X509890Y154530D02*
D03*
X563840Y156010D02*
D03*
X570620Y143410D02*
D03*
X265930Y287650D02*
D03*
X256720Y284740D02*
D03*
X291000Y235070D02*
D03*
X298686Y241220D02*
D03*
X291000Y248130D02*
D03*
X298686Y254790D02*
D03*
Y267624D02*
D03*
X291000Y260570D02*
D03*
X553600Y147384D02*
D03*
X449510Y111630D02*
D03*
X553140Y136848D02*
D03*
X234880Y251240D02*
D03*
X402570Y84050D02*
D03*
M02*
