G04*
G04 #@! TF.GenerationSoftware,Altium Limited,Altium Designer,25.2.1 (25)*
G04*
G04 Layer_Physical_Order=1*
G04 Layer_Color=255*
%FSLAX44Y44*%
%MOMM*%
G71*
G04*
G04 #@! TF.SameCoordinates,08FEDEBF-EFD6-4BB9-9F50-9E33F9D93CBE*
G04*
G04*
G04 #@! TF.FilePolarity,Positive*
G04*
G01*
G75*
%ADD13C,0.2540*%
%ADD34R,3.9600X3.9600*%
%ADD35R,3.1800X3.1800*%
%ADD36R,0.9000X1.0000*%
G04:AMPARAMS|DCode=37|XSize=0.95mm|YSize=0.95mm|CornerRadius=0mm|HoleSize=0mm|Usage=FLASHONLY|Rotation=270.000|XOffset=0mm|YOffset=0mm|HoleType=Round|Shape=RoundedRectangle|*
%AMROUNDEDRECTD37*
21,1,0.9500,0.9500,0,0,270.0*
21,1,0.9500,0.9500,0,0,270.0*
1,1,0.0000,-0.4750,-0.4750*
1,1,0.0000,-0.4750,0.4750*
1,1,0.0000,0.4750,0.4750*
1,1,0.0000,0.4750,-0.4750*
%
%ADD37ROUNDEDRECTD37*%
%ADD38R,0.5000X0.5000*%
%ADD39R,0.4500X0.4500*%
%ADD40R,0.6000X0.6500*%
%ADD41R,1.0000X0.9000*%
%ADD42R,0.5500X0.8500*%
%ADD43R,2.2000X0.8500*%
%ADD44R,3.0000X2.7000*%
%ADD45R,1.2000X0.3000*%
%ADD46R,0.8000X1.1500*%
%ADD47R,1.1500X0.8000*%
%ADD48R,1.4700X0.9700*%
G04:AMPARAMS|DCode=49|XSize=0.95mm|YSize=0.95mm|CornerRadius=0mm|HoleSize=0mm|Usage=FLASHONLY|Rotation=0.000|XOffset=0mm|YOffset=0mm|HoleType=Round|Shape=RoundedRectangle|*
%AMROUNDEDRECTD49*
21,1,0.9500,0.9500,0,0,0.0*
21,1,0.9500,0.9500,0,0,0.0*
1,1,0.0000,0.4750,-0.4750*
1,1,0.0000,-0.4750,-0.4750*
1,1,0.0000,-0.4750,0.4750*
1,1,0.0000,0.4750,0.4750*
%
%ADD49ROUNDEDRECTD49*%
%ADD50R,0.9700X1.4700*%
%ADD51C,0.5000*%
%ADD52C,0.2000*%
%ADD53C,0.3000*%
%ADD54C,0.4000*%
%ADD55C,1.8000*%
%ADD56C,0.7000*%
%ADD57C,0.6000*%
G36*
X590485Y1403D02*
X1657D01*
Y9495D01*
X2927Y9579D01*
X3047Y8667D01*
X3777Y6904D01*
X4940Y5389D01*
X6454Y4227D01*
X8218Y3496D01*
X10110Y3247D01*
X12003Y3496D01*
X13766Y4227D01*
X15281Y5389D01*
X16443Y6904D01*
X17174Y8667D01*
X17423Y10560D01*
X17174Y12452D01*
X16443Y14216D01*
X15281Y15731D01*
X13766Y16893D01*
X12003Y17623D01*
X10110Y17872D01*
X8218Y17623D01*
X6454Y16893D01*
X4940Y15731D01*
X3777Y14216D01*
X3047Y12452D01*
X2927Y11541D01*
X1657Y11624D01*
Y297047D01*
X590485D01*
Y1403D01*
D02*
G37*
%LPC*%
G36*
X224734Y293294D02*
X218234D01*
Y286794D01*
X224734D01*
Y293294D01*
D02*
G37*
G36*
X581780Y295033D02*
X579887Y294783D01*
X578124Y294053D01*
X576609Y292891D01*
X575447Y291376D01*
X574716Y289613D01*
X574467Y287720D01*
X574716Y285827D01*
X575447Y284064D01*
X576609Y282549D01*
X578124Y281387D01*
X579887Y280657D01*
X581780Y280408D01*
X583672Y280657D01*
X585436Y281387D01*
X586951Y282549D01*
X588113Y284064D01*
X588843Y285827D01*
X589092Y287720D01*
X588843Y289613D01*
X588113Y291376D01*
X586951Y292891D01*
X585436Y294053D01*
X583672Y294783D01*
X581780Y295033D01*
D02*
G37*
G36*
X11390Y294993D02*
X9497Y294743D01*
X7734Y294013D01*
X6219Y292851D01*
X5057Y291336D01*
X4326Y289573D01*
X4077Y287680D01*
X4326Y285787D01*
X5057Y284024D01*
X6219Y282509D01*
X7734Y281347D01*
X9497Y280617D01*
X11390Y280367D01*
X13283Y280617D01*
X15046Y281347D01*
X16561Y282509D01*
X17723Y284024D01*
X18453Y285787D01*
X18702Y287680D01*
X18453Y289573D01*
X17723Y291336D01*
X16561Y292851D01*
X15046Y294013D01*
X13283Y294743D01*
X11390Y294993D01*
D02*
G37*
G36*
X265930Y291728D02*
X264369Y291418D01*
X263046Y290534D01*
X262162Y289211D01*
X261852Y287650D01*
X262162Y286089D01*
X263046Y284766D01*
X263891Y284202D01*
Y282815D01*
X261442Y280366D01*
X261000Y279704D01*
X260908Y279244D01*
X258759D01*
Y281292D01*
X259604Y281856D01*
X260488Y283179D01*
X260798Y284740D01*
X260488Y286301D01*
X259604Y287624D01*
X258281Y288508D01*
X256720Y288818D01*
X255159Y288508D01*
X253836Y287624D01*
X252952Y286301D01*
X252642Y284740D01*
X252952Y283179D01*
X253836Y281856D01*
X254681Y281292D01*
Y279244D01*
X253134D01*
Y272744D01*
X256384D01*
Y266244D01*
X262884D01*
Y271846D01*
X263782Y272744D01*
X266134Y272744D01*
X267404Y272744D01*
X272634D01*
Y279244D01*
X267884D01*
X267358Y280514D01*
X267372Y280528D01*
X267372Y280528D01*
X267814Y281190D01*
X267969Y281970D01*
Y284202D01*
X268814Y284766D01*
X269698Y286089D01*
X270008Y287650D01*
X269698Y289211D01*
X268814Y290534D01*
X267491Y291418D01*
X265930Y291728D01*
D02*
G37*
G36*
X281534Y277374D02*
X275034D01*
Y267624D01*
X268534D01*
Y261124D01*
Y249394D01*
X268534Y248124D01*
X268534D01*
Y248124D01*
X268534D01*
Y241624D01*
X275034D01*
Y231874D01*
X281534D01*
Y233085D01*
X286914D01*
X287756Y231826D01*
X289244Y230831D01*
X291000Y230482D01*
X292756Y230831D01*
X294244Y231826D01*
X295239Y233314D01*
X295588Y235070D01*
X295295Y236546D01*
X296002Y237220D01*
X296324Y237386D01*
X296930Y236981D01*
X298686Y236632D01*
X300441Y236981D01*
X301930Y237976D01*
X302925Y239464D01*
X303274Y241220D01*
X302925Y242976D01*
X301930Y244464D01*
X300441Y245459D01*
X298686Y245808D01*
X296930Y245459D01*
X295441Y244464D01*
X294473Y245229D01*
X295239Y246374D01*
X295588Y248130D01*
X295239Y249886D01*
X294916Y250369D01*
X295832Y251285D01*
X296930Y250551D01*
X298686Y250202D01*
X300441Y250551D01*
X301930Y251546D01*
X302925Y253034D01*
X303274Y254790D01*
X302925Y256546D01*
X301930Y258034D01*
X300441Y259029D01*
X298686Y259378D01*
X296930Y259029D01*
X296523Y258757D01*
X295380Y259520D01*
X295588Y260570D01*
X295239Y262326D01*
X294377Y263616D01*
X294562Y264459D01*
X294810Y264964D01*
X295029Y264997D01*
X295441Y264380D01*
X296930Y263385D01*
X298686Y263036D01*
X300441Y263385D01*
X301930Y264380D01*
X302925Y265868D01*
X303274Y267624D01*
X302925Y269380D01*
X301930Y270868D01*
X300441Y271863D01*
X298686Y272212D01*
X296930Y271863D01*
X295441Y270868D01*
X294636Y269663D01*
X281534D01*
Y270874D01*
Y277374D01*
D02*
G37*
G36*
X224734Y264374D02*
X218234D01*
Y259144D01*
X218234Y257874D01*
X218234D01*
Y257874D01*
X218234D01*
Y251374D01*
X223836D01*
X224734Y250476D01*
X224734Y248124D01*
X224734Y246854D01*
Y241624D01*
X231234D01*
X231234Y247385D01*
X232504Y248017D01*
X233319Y247472D01*
X234880Y247162D01*
X236441Y247472D01*
X237764Y248356D01*
X238648Y249679D01*
X238958Y251240D01*
X238648Y252801D01*
X237764Y254124D01*
X236441Y255008D01*
X234880Y255318D01*
X233319Y255008D01*
X232504Y254463D01*
X231234Y254624D01*
Y254624D01*
X231234Y254624D01*
X224734D01*
Y256604D01*
X224734Y257874D01*
X224734D01*
Y257874D01*
X224734D01*
Y264374D01*
D02*
G37*
G36*
X503844Y254162D02*
X492344D01*
Y242662D01*
X503844D01*
Y246098D01*
X506909D01*
X517369Y235637D01*
Y231021D01*
X516196Y230535D01*
X512431Y234301D01*
X511680Y234802D01*
X510794Y234979D01*
X503844D01*
Y238414D01*
X492344D01*
Y226914D01*
X503844D01*
Y230350D01*
X509835D01*
X513830Y226355D01*
Y214495D01*
X512657Y214009D01*
X508113Y218553D01*
X507362Y219054D01*
X506476Y219230D01*
X503844D01*
Y222666D01*
X492344D01*
Y211166D01*
X503844D01*
Y214602D01*
X505517D01*
X519115Y201004D01*
X519866Y200502D01*
X520752Y200326D01*
X522413D01*
X523606Y200140D01*
Y196219D01*
X522336Y195693D01*
X515225Y202805D01*
X514474Y203306D01*
X513588Y203482D01*
X503844D01*
Y206918D01*
X492344D01*
Y195418D01*
X503844D01*
Y198854D01*
X512629D01*
X520258Y191224D01*
X520047Y190365D01*
X519769Y189954D01*
X515808D01*
X514922Y189778D01*
X514171Y189277D01*
X512629Y187735D01*
X503844D01*
Y191170D01*
X492344D01*
Y179670D01*
X503844D01*
Y183106D01*
X513588D01*
X513883Y183164D01*
X514509Y181994D01*
X505114Y172599D01*
X503844Y173125D01*
Y175422D01*
X492344D01*
Y163922D01*
X503844D01*
Y167358D01*
X505460D01*
X506346Y167534D01*
X507097Y168036D01*
X519387Y180326D01*
X523606D01*
Y180140D01*
X537606D01*
Y185140D01*
X537606Y190140D01*
X537606Y191410D01*
Y195326D01*
X546581D01*
X561525Y180381D01*
Y159875D01*
X560596Y159254D01*
X559601Y157766D01*
X559252Y156010D01*
X559601Y154254D01*
X560596Y152766D01*
X562084Y151771D01*
X563840Y151422D01*
X565596Y151771D01*
X567036Y152733D01*
X567322Y152676D01*
X568306Y152308D01*
Y147276D01*
X567376Y146654D01*
X566381Y145166D01*
X566032Y143410D01*
X566381Y141654D01*
X567376Y140166D01*
X568864Y139171D01*
X570620Y138822D01*
X572376Y139171D01*
X573865Y140166D01*
X574859Y141654D01*
X575208Y143410D01*
X574859Y145166D01*
X573865Y146654D01*
X572935Y147276D01*
Y192070D01*
X572758Y192955D01*
X572257Y193706D01*
X556687Y209277D01*
X555936Y209778D01*
X555050Y209954D01*
X538799D01*
X537606Y210140D01*
Y215140D01*
X523606D01*
X522592Y215758D01*
X521998Y216351D01*
Y236596D01*
X521822Y237482D01*
X521321Y238232D01*
X509505Y250049D01*
X508754Y250550D01*
X507868Y250727D01*
X503844D01*
Y254162D01*
D02*
G37*
G36*
X256384Y242994D02*
X256384Y242994D01*
X236884D01*
Y236494D01*
X227134D01*
Y229994D01*
X228070D01*
Y211514D01*
X226620D01*
Y203014D01*
X234620D01*
Y211514D01*
X232699D01*
Y229994D01*
X245364D01*
X246634Y229994D01*
Y229994D01*
X246634D01*
Y229994D01*
X264864D01*
X266134Y229994D01*
X267404Y229994D01*
X272634D01*
Y236494D01*
X266134Y236494D01*
X264864Y236494D01*
X262884D01*
Y242994D01*
X257654D01*
X256384Y242994D01*
Y242994D01*
D02*
G37*
G36*
X104784Y252104D02*
X70984D01*
Y218304D01*
X104784D01*
Y231501D01*
X194910D01*
Y229320D01*
X206410D01*
Y231556D01*
X221484D01*
X222850Y231827D01*
X222920Y231874D01*
X224734D01*
Y233688D01*
X224781Y233759D01*
X225053Y235124D01*
X224781Y236490D01*
X224734Y236560D01*
Y238374D01*
X222920D01*
X222850Y238421D01*
X221484Y238693D01*
X206410D01*
Y240820D01*
X194910D01*
Y238638D01*
X104784D01*
Y252104D01*
D02*
G37*
G36*
X265620Y211514D02*
X257620D01*
Y203014D01*
X265620D01*
Y211514D01*
D02*
G37*
G36*
X289530Y186040D02*
X278530D01*
Y182078D01*
X265620D01*
Y184014D01*
X257620D01*
Y175514D01*
X265620D01*
Y177449D01*
X278530D01*
Y174040D01*
X289530D01*
Y186040D01*
D02*
G37*
G36*
X234620Y184014D02*
X226620D01*
Y175514D01*
X234620D01*
Y184014D01*
D02*
G37*
G36*
X530606Y175189D02*
X530359Y175140D01*
X523606D01*
Y170140D01*
X522678Y169442D01*
X511861Y158625D01*
X511646Y158769D01*
X509890Y159118D01*
X508134Y158769D01*
X506645Y157774D01*
X506181Y157079D01*
X503844D01*
Y159674D01*
X492344D01*
Y148174D01*
X503844D01*
Y151981D01*
X506181D01*
X506645Y151286D01*
X508134Y150291D01*
X509890Y149942D01*
X511646Y150291D01*
X513134Y151286D01*
X514129Y152774D01*
X514355Y153910D01*
X522433Y161988D01*
X523606Y161502D01*
X523606Y160140D01*
X523606D01*
Y160140D01*
X523606D01*
Y151410D01*
X523606Y150140D01*
X523606D01*
Y150140D01*
X523606D01*
Y141410D01*
X523606Y140140D01*
X523606D01*
Y140140D01*
X523606D01*
Y135140D01*
X537606D01*
Y135601D01*
X541699D01*
X541894Y135406D01*
X542556Y134964D01*
X543336Y134809D01*
X549091D01*
X549896Y133604D01*
X551385Y132609D01*
X553140Y132260D01*
X554896Y132609D01*
X556385Y133604D01*
X557379Y135092D01*
X557729Y136848D01*
X557379Y138604D01*
X556385Y140092D01*
X554896Y141087D01*
X553140Y141436D01*
X551385Y141087D01*
X551367Y141075D01*
X550319Y141726D01*
X550335Y142818D01*
X551378Y143456D01*
X551844Y143145D01*
X553600Y142795D01*
X555356Y143145D01*
X556844Y144139D01*
X557839Y145628D01*
X558188Y147384D01*
X557839Y149139D01*
X556844Y150628D01*
X555356Y151622D01*
X553600Y151972D01*
X551844Y151622D01*
X551577Y151444D01*
X550434Y152208D01*
X550663Y153357D01*
X550540Y153976D01*
X551683Y154740D01*
X552114Y154451D01*
X553870Y154102D01*
X555626Y154451D01*
X557114Y155446D01*
X558109Y156934D01*
X558458Y158690D01*
X558109Y160446D01*
X557114Y161934D01*
X555626Y162929D01*
X553870Y163278D01*
X552114Y162929D01*
X552039Y162879D01*
X550896Y163643D01*
X551128Y164810D01*
X550779Y166566D01*
X549784Y168054D01*
X548296Y169049D01*
X546540Y169398D01*
X544784Y169049D01*
X543296Y168054D01*
X542470Y166819D01*
X541310D01*
X540529Y166664D01*
X539868Y166222D01*
X539868Y166222D01*
X538876Y165230D01*
X537606Y165756D01*
Y170140D01*
X537606D01*
Y170140D01*
X537606D01*
Y175140D01*
X530853D01*
X530606Y175189D01*
D02*
G37*
G36*
X503724Y143926D02*
X492224D01*
Y132426D01*
X503724D01*
Y132426D01*
X504832Y132885D01*
X520466Y117251D01*
X520101Y115830D01*
X520071Y115843D01*
X511848Y124065D01*
X511098Y124566D01*
X510212Y124742D01*
X503724D01*
Y128178D01*
X492224D01*
Y116678D01*
X503724D01*
Y120114D01*
X509253D01*
X518142Y111225D01*
X517930Y110363D01*
X517653Y109955D01*
X503832D01*
Y112426D01*
X492832D01*
Y100426D01*
X496018D01*
Y97120D01*
X494730D01*
Y86620D01*
X502230D01*
Y97120D01*
X500647D01*
Y100426D01*
X503832D01*
Y105326D01*
X514874D01*
X515023Y105086D01*
X515268Y104192D01*
X515272Y104056D01*
X510038Y98823D01*
X510038Y98822D01*
X509767Y98417D01*
X509596Y98161D01*
X509596Y98161D01*
X509596Y98161D01*
X509518Y97769D01*
X509441Y97381D01*
X508204Y97120D01*
X507730D01*
Y86620D01*
X507730D01*
X508054Y85838D01*
X506106Y83889D01*
X497170D01*
X497170Y83889D01*
X496390Y83734D01*
X495728Y83292D01*
X488783Y76347D01*
X487610Y76833D01*
Y78290D01*
X475610D01*
Y67290D01*
X487610D01*
Y70751D01*
X488110D01*
X488890Y70906D01*
X489552Y71348D01*
X498015Y79811D01*
X506951D01*
X507304Y79881D01*
X507731Y79966D01*
X507731Y79966D01*
X508392Y80408D01*
X508392Y80408D01*
X512922Y84938D01*
X512922Y84938D01*
X513364Y85599D01*
X513364Y85600D01*
X513519Y86380D01*
X514763Y86620D01*
X515230D01*
Y97120D01*
X515230D01*
X514900Y97917D01*
X517585Y100601D01*
X523606D01*
Y95140D01*
X537606D01*
Y100140D01*
X537606Y105140D01*
X537606Y106410D01*
Y110140D01*
X537606Y115140D01*
X537606Y116410D01*
Y130140D01*
X523606D01*
Y122316D01*
X522433Y121830D01*
X504450Y139813D01*
X503724Y140298D01*
Y143926D01*
D02*
G37*
G36*
X464570Y118350D02*
X454570D01*
Y114149D01*
X453239D01*
X452754Y114874D01*
X451266Y115869D01*
X449510Y116218D01*
X447754Y115869D01*
X446266Y114874D01*
X445781Y114149D01*
X444160D01*
Y117070D01*
X432660D01*
Y105570D01*
X444160D01*
Y109051D01*
X445821D01*
X446266Y108386D01*
X447754Y107391D01*
X449510Y107042D01*
X451266Y107391D01*
X452754Y108386D01*
X453199Y109051D01*
X454570D01*
Y104850D01*
X464570D01*
Y118350D01*
D02*
G37*
G36*
X302254Y123624D02*
X299643Y123281D01*
X297211Y122273D01*
X295122Y120670D01*
X293519Y118581D01*
X292511Y116149D01*
X292168Y113538D01*
X292511Y110927D01*
X293519Y108495D01*
X295122Y106406D01*
X297211Y104803D01*
X299643Y103795D01*
X302254Y103452D01*
X304865Y103795D01*
X307297Y104803D01*
X309386Y106406D01*
X310989Y108495D01*
X311997Y110927D01*
X312340Y113538D01*
X311997Y116149D01*
X310989Y118581D01*
X309386Y120670D01*
X307297Y122273D01*
X304865Y123281D01*
X302254Y123624D01*
D02*
G37*
G36*
X276854D02*
X274244Y123281D01*
X271811Y122273D01*
X269722Y120670D01*
X268119Y118581D01*
X267111Y116149D01*
X266768Y113538D01*
X267111Y110927D01*
X268119Y108495D01*
X269722Y106406D01*
X271811Y104803D01*
X274244Y103795D01*
X276854Y103452D01*
X279464Y103795D01*
X281897Y104803D01*
X283986Y106406D01*
X285589Y108495D01*
X286597Y110927D01*
X286940Y113538D01*
X286597Y116149D01*
X285589Y118581D01*
X283986Y120670D01*
X281897Y122273D01*
X279464Y123281D01*
X276854Y123624D01*
D02*
G37*
G36*
X251454D02*
X248843Y123281D01*
X246411Y122273D01*
X244322Y120670D01*
X242719Y118581D01*
X241711Y116149D01*
X241368Y113538D01*
X241711Y110927D01*
X242719Y108495D01*
X244322Y106406D01*
X246411Y104803D01*
X248843Y103795D01*
X251454Y103452D01*
X254065Y103795D01*
X256497Y104803D01*
X258586Y106406D01*
X260189Y108495D01*
X261197Y110927D01*
X261540Y113538D01*
X261197Y116149D01*
X260189Y118581D01*
X258586Y120670D01*
X256497Y122273D01*
X254065Y123281D01*
X251454Y123624D01*
D02*
G37*
G36*
X226054D02*
X223444Y123281D01*
X221011Y122273D01*
X218922Y120670D01*
X217319Y118581D01*
X216311Y116149D01*
X215968Y113538D01*
X216311Y110927D01*
X217319Y108495D01*
X218922Y106406D01*
X221011Y104803D01*
X223444Y103795D01*
X226054Y103452D01*
X228664Y103795D01*
X231097Y104803D01*
X233186Y106406D01*
X234789Y108495D01*
X235797Y110927D01*
X236140Y113538D01*
X235797Y116149D01*
X234789Y118581D01*
X233186Y120670D01*
X231097Y122273D01*
X228664Y123281D01*
X226054Y123624D01*
D02*
G37*
G36*
X402570Y88638D02*
X400814Y88289D01*
X399326Y87295D01*
X398890Y86642D01*
X397620Y86926D01*
Y87950D01*
X384120D01*
Y77950D01*
X397620D01*
Y81174D01*
X398890Y81458D01*
X399326Y80806D01*
X400814Y79811D01*
X402570Y79462D01*
X404326Y79811D01*
X405815Y80806D01*
X406809Y82294D01*
X407158Y84050D01*
X406809Y85806D01*
X405815Y87295D01*
X404326Y88289D01*
X402570Y88638D01*
D02*
G37*
G36*
X464570Y83350D02*
X454570D01*
Y69850D01*
X456601D01*
Y65170D01*
X453810D01*
Y48470D01*
X465510D01*
Y53551D01*
X492880D01*
Y51360D01*
X516880D01*
Y61860D01*
X507294D01*
Y65620D01*
X508730D01*
Y76120D01*
X501230D01*
Y65620D01*
X502665D01*
Y61860D01*
X492880D01*
Y59669D01*
X465510D01*
Y65170D01*
X462719D01*
Y69850D01*
X464570D01*
Y83350D01*
D02*
G37*
G36*
X432620Y87950D02*
X419120D01*
Y77950D01*
X422751D01*
Y62470D01*
X419060D01*
Y52470D01*
X432560D01*
Y53762D01*
X437210D01*
Y48470D01*
X448910D01*
Y65170D01*
X437210D01*
Y59879D01*
X432560D01*
Y62470D01*
X428869D01*
Y77950D01*
X432620D01*
Y87950D01*
D02*
G37*
G36*
X327654Y123624D02*
X325043Y123281D01*
X322611Y122273D01*
X320522Y120670D01*
X318919Y118581D01*
X317911Y116149D01*
X317568Y113538D01*
X317911Y110927D01*
X318522Y109453D01*
X249722Y40653D01*
X104784D01*
Y53984D01*
X70984D01*
Y20184D01*
X104784D01*
Y33516D01*
X251200D01*
X252565Y33787D01*
X253723Y34561D01*
X322815Y103653D01*
X324085Y103127D01*
Y84766D01*
X324357Y83400D01*
X325131Y82243D01*
X373987Y33387D01*
X375144Y32613D01*
X376510Y32341D01*
X471100D01*
Y30060D01*
X487800D01*
Y33516D01*
X492880D01*
Y30860D01*
X516880D01*
Y41360D01*
X492880D01*
Y40653D01*
X487800D01*
Y41760D01*
X471100D01*
Y39479D01*
X377988D01*
X331222Y86244D01*
Y104192D01*
X332697Y104803D01*
X334786Y106406D01*
X336389Y108495D01*
X337397Y110927D01*
X337740Y113538D01*
X337397Y116149D01*
X336389Y118581D01*
X334786Y120670D01*
X332697Y122273D01*
X330265Y123281D01*
X327654Y123624D01*
D02*
G37*
G36*
X581450Y17473D02*
X579558Y17223D01*
X577794Y16493D01*
X576279Y15331D01*
X575117Y13816D01*
X574387Y12053D01*
X574138Y10160D01*
X574387Y8267D01*
X575117Y6504D01*
X576279Y4989D01*
X577794Y3827D01*
X579558Y3097D01*
X581450Y2848D01*
X583343Y3097D01*
X585107Y3827D01*
X586621Y4989D01*
X587783Y6504D01*
X588514Y8267D01*
X588763Y10160D01*
X588514Y12053D01*
X587783Y13816D01*
X586621Y15331D01*
X585107Y16493D01*
X583343Y17223D01*
X581450Y17473D01*
D02*
G37*
%LPD*%
D13*
X498332Y91186D02*
Y91870D01*
Y106426D01*
Y91186D02*
Y106426D01*
Y91186D02*
Y106426D01*
Y91186D02*
Y106426D01*
X388120Y84050D02*
X402570D01*
X388120D02*
X402570D01*
X388120D02*
X402570D01*
X498332Y91186D02*
Y91870D01*
Y106426D01*
X519684Y215392D02*
Y236596D01*
X507868Y248412D02*
X519684Y236596D01*
X498094Y248412D02*
X507868D01*
X547540Y197640D02*
X563840Y181340D01*
Y156010D02*
Y181340D01*
X555050Y207640D02*
X570620Y192070D01*
Y143410D02*
Y192070D01*
X530606Y197640D02*
X547540D01*
X530606Y207640D02*
X555050D01*
X290436Y235124D02*
X290490Y235070D01*
X290406Y235124D02*
X290436D01*
X278284Y254624D02*
X278358Y254550D01*
X290446Y261124D02*
X291000Y260570D01*
X510794Y232664D02*
X516144Y227314D01*
X498094Y232664D02*
X510794D01*
X516144Y212582D02*
Y227314D01*
Y212582D02*
X521086Y207640D01*
X530606D01*
X519684Y215392D02*
X522436Y212640D01*
X530606D01*
X387840Y83770D02*
X388120Y84050D01*
X283754Y179764D02*
X284030Y180040D01*
X261620Y179764D02*
X283754D01*
X230384Y207500D02*
X230620Y207264D01*
X230384Y207500D02*
Y233244D01*
X504880Y56610D02*
X504980Y56710D01*
Y70870D01*
X498332Y106426D02*
X499546Y107640D01*
X530606D01*
X497974Y122428D02*
X510212D01*
X520000Y112640D01*
X530606D01*
X523350Y117640D02*
X530606D01*
X502814Y138176D02*
X523350Y117640D01*
X497974Y138176D02*
X502814D01*
X518428Y182640D02*
X530606D01*
X505460Y169672D02*
X518428Y182640D01*
X498094Y169672D02*
X505460D01*
X498094Y185420D02*
X513588D01*
X515808Y187640D01*
X530606D01*
X498094Y201168D02*
X513588D01*
X522116Y192640D01*
X530606D01*
X498094Y216916D02*
X506476D01*
X520752Y202640D01*
X530606D01*
D34*
X87884Y137414D02*
D03*
D35*
Y235204D02*
D03*
Y37084D02*
D03*
D36*
X284030Y180040D02*
D03*
X301030D02*
D03*
X498332Y106426D02*
D03*
X481332D02*
D03*
D37*
X200660Y235070D02*
D03*
Y250070D02*
D03*
D38*
X255084Y250124D02*
D03*
Y259124D02*
D03*
X244684D02*
D03*
Y250124D02*
D03*
D39*
X240134Y269494D02*
D03*
X246634D02*
D03*
X253134D02*
D03*
Y239744D02*
D03*
X246634D02*
D03*
X240134D02*
D03*
X230384Y275994D02*
D03*
X236884D02*
D03*
X243384D02*
D03*
X249884D02*
D03*
X256384D02*
D03*
X262884D02*
D03*
Y233244D02*
D03*
X256384D02*
D03*
X249884D02*
D03*
X243384D02*
D03*
X236884D02*
D03*
X230384D02*
D03*
X271784Y264374D02*
D03*
Y257874D02*
D03*
Y251374D02*
D03*
X278284Y274124D02*
D03*
Y267624D02*
D03*
Y261124D02*
D03*
Y254624D02*
D03*
Y248124D02*
D03*
X259634Y269494D02*
D03*
X269384Y275994D02*
D03*
X271784Y244874D02*
D03*
X278284Y290044D02*
D03*
Y283544D02*
D03*
Y241624D02*
D03*
Y235124D02*
D03*
X259634Y239744D02*
D03*
X269384Y233244D02*
D03*
X227984Y244874D02*
D03*
Y251374D02*
D03*
Y257874D02*
D03*
Y264374D02*
D03*
X221484Y235124D02*
D03*
Y241624D02*
D03*
Y248124D02*
D03*
Y254624D02*
D03*
Y261124D02*
D03*
Y267624D02*
D03*
Y274124D02*
D03*
Y283544D02*
D03*
Y290044D02*
D03*
D40*
X230620Y207264D02*
D03*
X261620D02*
D03*
X230620Y179764D02*
D03*
X261620D02*
D03*
D41*
X481610Y72790D02*
D03*
Y89790D02*
D03*
D42*
X504980Y70870D02*
D03*
X498480Y91870D02*
D03*
X511480D02*
D03*
D43*
X504880Y36110D02*
D03*
Y56610D02*
D03*
D44*
X549206Y231940D02*
D03*
Y78340D02*
D03*
D45*
X530606Y197640D02*
D03*
Y192640D02*
D03*
Y177640D02*
D03*
Y172640D02*
D03*
Y157640D02*
D03*
Y152640D02*
D03*
Y137640D02*
D03*
Y132640D02*
D03*
Y127640D02*
D03*
Y122640D02*
D03*
Y97640D02*
D03*
Y102640D02*
D03*
Y107640D02*
D03*
Y112640D02*
D03*
Y117640D02*
D03*
Y142640D02*
D03*
Y147640D02*
D03*
Y162640D02*
D03*
Y167640D02*
D03*
Y182640D02*
D03*
Y187640D02*
D03*
Y202640D02*
D03*
Y207640D02*
D03*
Y212640D02*
D03*
D46*
X459570Y76600D02*
D03*
Y111600D02*
D03*
D47*
X425810Y57470D02*
D03*
X390810D02*
D03*
X390870Y82950D02*
D03*
X425870D02*
D03*
D48*
X479450Y35910D02*
D03*
Y19310D02*
D03*
D49*
X438410Y111320D02*
D03*
X423410D02*
D03*
X498094Y248412D02*
D03*
X483094D02*
D03*
X498094Y232664D02*
D03*
X483094D02*
D03*
X498094Y216916D02*
D03*
X483094D02*
D03*
X498094Y201168D02*
D03*
X483094D02*
D03*
X498094Y185420D02*
D03*
X483094D02*
D03*
X498094Y169672D02*
D03*
X483094D02*
D03*
X498094Y153924D02*
D03*
X483094D02*
D03*
X482974Y138176D02*
D03*
X497974D02*
D03*
Y122428D02*
D03*
X482974D02*
D03*
D50*
X443060Y56820D02*
D03*
X459660D02*
D03*
D51*
X251200Y37084D02*
X327654Y113538D01*
X87884Y37084D02*
X251200D01*
X327654Y84766D02*
Y113538D01*
Y84766D02*
X376510Y35910D01*
X479450Y37084D02*
X503906D01*
X376510Y35910D02*
X479450D01*
X87884Y235204D02*
X88018Y235070D01*
X200660D01*
X200714Y235124D01*
X221484D01*
D52*
X265930Y281970D02*
Y287650D01*
X262884Y278924D02*
X265930Y281970D01*
X262884Y275994D02*
Y278924D01*
X497170Y81850D02*
X506950D01*
X488110Y72790D02*
X497170Y81850D01*
X506950D02*
X511480Y86380D01*
Y91870D01*
X481610Y72790D02*
X488110D01*
X256380Y275998D02*
X256720Y276338D01*
X256380Y275998D02*
X256720Y276338D01*
X278284Y241624D02*
X298836D01*
X278284D02*
X298836D01*
X290540Y248128D02*
Y248130D01*
Y248128D02*
Y248130D01*
X278358Y254550D02*
X298700D01*
X278358D02*
X298700D01*
X278358D02*
X298700D01*
X290540Y248128D02*
Y248130D01*
X278284Y241624D02*
X298686D01*
X278284D02*
X298836D01*
X256380Y275998D02*
X256720Y276338D01*
X553140Y136848D02*
X553600Y137307D01*
X543336Y136848D02*
X553140D01*
X542544Y137640D02*
X543336Y136848D01*
X530814Y147848D02*
X553136D01*
X530606Y147640D02*
X530814Y147848D01*
X553136D02*
X553600Y147384D01*
X530606Y157640D02*
X539670D01*
X553704Y158857D02*
X553870Y158690D01*
X540886Y158857D02*
X553704D01*
X539670Y157640D02*
X540886Y158857D01*
X530606Y162640D02*
X539170D01*
X546510Y164780D02*
X546540Y164810D01*
X541310Y164780D02*
X546510D01*
X539170Y162640D02*
X541310Y164780D01*
X256720Y276338D02*
Y284740D01*
X256380Y275998D02*
X256384Y275994D01*
X290536Y248124D02*
X290540Y248128D01*
X278284Y235124D02*
X290406D01*
X278284Y248124D02*
X290536D01*
X278284Y261124D02*
X290446D01*
X278284Y267624D02*
X298686D01*
X530606Y152640D02*
X542544D01*
X530606Y137640D02*
X542544D01*
X530606Y142640D02*
X542544D01*
X516740Y102640D02*
X530606D01*
X511480Y97381D02*
X516740Y102640D01*
X511480Y91870D02*
Y97381D01*
X227984Y251374D02*
X234746D01*
X234880Y251240D01*
X221484Y254624D02*
Y261124D01*
D53*
X438689Y111600D02*
X459570D01*
X438689D02*
X459570D01*
X438689D02*
X459570D01*
X498094Y153924D02*
X498700Y154530D01*
X509890D02*
X511370D01*
X524480Y167640D01*
X498700Y154530D02*
X509890D01*
X438410Y111320D02*
X438689Y111600D01*
X503906Y37084D02*
X504880Y36110D01*
X524480Y167640D02*
X530606D01*
Y172640D01*
D54*
X425810Y82890D02*
X425870Y82950D01*
X425810Y57470D02*
Y82890D01*
Y57470D02*
X426460Y56820D01*
X443060D01*
X459570Y76600D02*
X459660Y76510D01*
Y56820D02*
Y76510D01*
Y56820D02*
X459870Y56610D01*
X504880D01*
D55*
X226054Y113538D02*
D03*
X251454D02*
D03*
X327654D02*
D03*
X302254D02*
D03*
X276854D02*
D03*
X200654D02*
D03*
D56*
X553870Y158690D02*
D03*
X546540Y164810D02*
D03*
X546075Y153357D02*
D03*
X545625Y142348D02*
D03*
X509890Y154530D02*
D03*
X563840Y156010D02*
D03*
X570620Y143410D02*
D03*
X291000Y235070D02*
D03*
X298686Y241220D02*
D03*
X291000Y248130D02*
D03*
X298686Y254790D02*
D03*
Y267624D02*
D03*
X291000Y260570D02*
D03*
X553600Y147384D02*
D03*
X449510Y111630D02*
D03*
X553140Y136848D02*
D03*
X402570Y84050D02*
D03*
X165124Y186998D02*
D03*
X45124Y26998D02*
D03*
X125124Y266998D02*
D03*
X43624Y96488D02*
D03*
X325124Y266998D02*
D03*
X165124Y26998D02*
D03*
X429654Y198158D02*
D03*
X325124Y26998D02*
D03*
X192754Y71588D02*
D03*
X145124Y146998D02*
D03*
X345124Y226998D02*
D03*
X145124D02*
D03*
X212144Y92078D02*
D03*
X145124Y66998D02*
D03*
X245124Y186998D02*
D03*
X204224Y213418D02*
D03*
X45124Y266998D02*
D03*
X285124Y26998D02*
D03*
X156744Y265558D02*
D03*
X405204Y158948D02*
D03*
X358924Y16388D02*
D03*
X425124Y226998D02*
D03*
X329324Y181868D02*
D03*
X537624Y272008D02*
D03*
X304964Y71268D02*
D03*
X65124Y226998D02*
D03*
X280464Y93048D02*
D03*
X516234Y264878D02*
D03*
X275684Y214248D02*
D03*
X65124Y66998D02*
D03*
X230624Y135838D02*
D03*
X205124Y26998D02*
D03*
X91334Y97198D02*
D03*
X360624Y130008D02*
D03*
X45124Y186998D02*
D03*
X385124Y226998D02*
D03*
X125124Y26998D02*
D03*
X205124Y186998D02*
D03*
X394714Y14678D02*
D03*
X316584Y132738D02*
D03*
X283924Y157578D02*
D03*
X445124Y266998D02*
D03*
X234854Y74278D02*
D03*
X385124Y146998D02*
D03*
X565124Y26998D02*
D03*
X245124D02*
D03*
X483134Y280158D02*
D03*
X361764Y82848D02*
D03*
X365124Y266998D02*
D03*
X525124Y26998D02*
D03*
X405124Y186998D02*
D03*
X243504Y92078D02*
D03*
X320664Y209878D02*
D03*
X405124Y266998D02*
D03*
X147024Y100508D02*
D03*
X305124Y226998D02*
D03*
X105124Y66998D02*
D03*
X203394Y134868D02*
D03*
X95274Y264908D02*
D03*
X585124Y146998D02*
D03*
X365124Y186998D02*
D03*
X312014Y158438D02*
D03*
X268404Y73008D02*
D03*
X553214Y46498D02*
D03*
X125124Y186998D02*
D03*
X345124Y146998D02*
D03*
D57*
X265930Y287650D02*
D03*
X256720Y284740D02*
D03*
X234880Y251240D02*
D03*
M02*
