M48
;Layer_Color=9474304
;FILE_FORMAT=4:4
METRIC,LZ
T04F00S00C1.0000
%
G90
G05
T04
G00X00591888Y-00005883
M15
G01X00591888Y-00005724
G01X00593801Y-00005554
G01X00594283Y-00005355
G01X00596107Y-00004056
G01X00596185Y-00003932
G01X00596348Y-00003816
G01X00597243Y-00002395
G01X00597442Y-00001913
G01X00597823Y00000001
G01X00597771Y00298705
G01X00597612Y00298705
G01X00597442Y00300617
G01X00597243Y00301099
G01X00595944Y00302923
G01X00594537Y00303805
G01X00594055Y00304004
G01X00592142Y00304385
G01X0Y00304333
G01X0Y00304174
G01X-00001913Y00304004
G01X-00002395Y00303805
G01X-00004219Y00302506
G01X-00005101Y00301099
G01X-000053Y00300617
G01X-00005681Y00298703
G01X-00005629Y00001026
G01X-00005894Y-00000549
G01X-00005522Y-00002167
G01X-00005323Y-00002649
G01X-00004024Y-00004473
G01X-00002617Y-00005355
G01X-00002136Y-00005554
G01X-00000222Y-00005935
G01X00591888Y-00005883
M16
M17
M30
