M48
;Layer_Color=9474304
;FILE_FORMAT=4:4
METRIC,LZ
;TYPE=PLATED
T01F00S00C0.3000
T02F00S00C1.1000
T03F00S00C1.2500
%
T01
X00325124Y00026998
X00358924Y00016388
X00394714Y00014678
X0040257Y0008405
X00361764Y00082848
X00360624Y00130008
X00345124Y00146998
X00385124
X00405204Y00158948
X0044951Y0011163
X0050989Y0015453
X00546075Y00153357
X00545625Y00142348
X005536Y00147384
X0055314Y00136848
X0055387Y0015869
X0056384Y0015601
X0057062Y0014341
X00585124Y00146998
X0054654Y0016481
X00553214Y00046498
X00565124Y00026998
X00525124
X00316584Y00132738
X00312014Y00158438
X00283924Y00157578
X00280464Y00093048
X00268404Y00073008
X00234854Y00074278
X00243504Y00092078
X00212144
X00192754Y00071588
X00145124Y00066998
X00147024Y00100508
X00145124Y00146998
X00203394Y00134868
X00230624Y00135838
X00245124Y00026998
X00285124
X00304964Y00071268
X00205124Y00026998
X00165124
X00125124
X00105124Y00066998
X00065124
X00043624Y00096488
X00091334Y00097198
X00045124Y00026998
Y00186998
X00065124Y00226998
X00045124Y00266998
X00095274Y00264908
X00125124Y00266998
X00156744Y00265558
X00145124Y00226998
X00125124Y00186998
X00165124
X00205124
X00204224Y00213418
X00245124Y00186998
X00275684Y00214248
X00291Y0023507
Y0024813
Y0026057
X00298686Y0025479
Y00267624
Y0024122
X00305124Y00226998
X0023488Y0025124
X0025672Y0028474
X0026593Y0028765
X00325124Y00266998
X00365124
X00405124
X00445124
X00483134Y00280158
X00516234Y00264878
X00537624Y00272008
X00425124Y00226998
X00429654Y00198158
X00405124Y00186998
X00365124
X00329324Y00181868
X00320664Y00209878
X00345124Y00226998
X00385124
T02
X00327654Y00113538
X00302254
X00276854
X00251454
X00226054
X00200654
T03
X0058145Y0001016
X0001011Y0001056
X0001139Y0028768
X0058178Y0028772
M30
